<!-- icon666.com - MILLIONS vector ICONS FREE --><svg viewBox="0 0 24 24" xmlns="http://www.w3.org/2000/svg" xmlns:xlink="http://www.w3.org/1999/xlink"><linearGradient id="SVGID_1_" gradientUnits="userSpaceOnUse" x1="12" x2="12" y1="5" y2="19"><stop offset="0" stop-color="#00bcd4"></stop><stop offset="1" stop-color="#1976d2"></stop></linearGradient><g id="delete_backspace"><path d="m20.0039063 5h-10.9995118c-.8378906 0-1.852539.4516602-2.4121093 1.0742188l-4.0625 4.5136719c-.7119141.7919922-.7119141 2.0322266.0004883 2.8242188l4.0615234 4.5136719c.5600586.6225584 1.574707 1.0742186 2.4125976 1.0742186h10.9995117c1.1025391 0 2-.8969727 2-2v-10c.0000001-1.1030273-.8974609-2-1.9999999-2zm-.0029297 12h-10.9965821c-.2646484 0-.7490234-.2158203-.9257813-.4121094l-4.0615234-4.5136719c-.0258789-.0283203-.0258789-.1201172-.0004883-.1484375l4.0625-4.5136719c.1762696-.196289.6606446-.4121093.925293-.4121093h10.9995117zm-8.7036133-3.7070312 1.2929687-1.2929688-1.2929688-1.2929688c-.390625-.390625-.390625-1.0234375 0-1.4140625s1.0234375-.390625 1.4140625 0l1.2924805 1.2929688 1.2929688-1.2929688c.390625-.390625 1.0234375-.390625 1.4140625 0s.390625 1.0234375 0 1.4140625l-1.2929687 1.2929688 1.2929688 1.2929688c.390625.390625.390625 1.0234375 0 1.4140625-.1953126.1953125-.451172.2929687-.7070313.2929687s-.5117188-.0976563-.7070313-.2929688l-1.2929688-1.2929688-1.2924805 1.2929688c-.1953124.1953126-.4511718.2929688-.7070312.2929688s-.5117188-.0976563-.7070313-.2929688c-.3906249-.3906249-.3906249-1.0234374.0000001-1.4140624z" fill="url(#SVGID_1_)"></path></g></svg>