<!-- icon666.com - MILLIONS vector ICONS FREE --><svg xmlns="http://www.w3.org/2000/svg" version="1.1" viewBox="0 0 464 464"><g id="surface1"><path d="M 328 136 L 232 232 L 328 328 L 232 232 L 232 464 C 360.128906 464 464 360.128906 464 232 C 464 103.871094 360.128906 0 232 0 L 232 232 Z M 328 136 " style=" stroke:none;fill-rule:nonzero;fill:rgb(90.196078%,90.588235%,90.980392%);fill-opacity:1;"></path><path d="M 232 464 L 232 232 L 136 328 L 232 232 L 136 136 L 232 232 L 232 0 C 103.871094 0 0 103.871094 0 232 C 0 360.128906 103.871094 464 232 464 Z M 232 464 " style=" stroke:none;fill-rule:nonzero;fill:rgb(81.960784%,82.745098%,83.137255%);fill-opacity:1;"></path><path d="M 328 336 C 325.878906 336 323.84375 335.15625 322.34375 333.65625 L 130.34375 141.65625 C 127.3125 138.515625 127.355469 133.527344 130.441406 130.441406 C 133.527344 127.355469 138.515625 127.3125 141.65625 130.34375 L 333.65625 322.34375 C 335.941406 324.632812 336.628906 328.074219 335.390625 331.0625 C 334.152344 334.050781 331.234375 336 328 336 Z M 328 336 " style=" stroke:none;fill-rule:nonzero;fill:rgb(57.647059%,58.431373%,59.607843%);fill-opacity:1;"></path><path d="M 136 336 C 132.765625 336 129.847656 334.050781 128.609375 331.0625 C 127.371094 328.074219 128.058594 324.632812 130.34375 322.34375 L 322.34375 130.34375 C 325.484375 127.3125 330.472656 127.355469 333.558594 130.441406 C 336.644531 133.527344 336.6875 138.515625 333.65625 141.65625 L 141.65625 333.65625 C 140.15625 335.15625 138.121094 336 136 336 Z M 136 336 " style=" stroke:none;fill-rule:nonzero;fill:rgb(57.647059%,58.431373%,59.607843%);fill-opacity:1;"></path></g></svg>