<!-- icon666.com - MILLIONS vector ICONS FREE --><svg id="Layer_1" enable-background="new 0 0 512 512" viewBox="0 0 512 512" xmlns="http://www.w3.org/2000/svg" xmlns:xlink="http://www.w3.org/1999/xlink"><linearGradient id="SVGID_1_" gradientUnits="userSpaceOnUse" x1="507.314" x2="4.686" y1="4.686" y2="507.314"><stop offset="0" stop-color="#e93528"></stop><stop offset="1" stop-color="#f8bc16"></stop></linearGradient><path d="m496 0h-480c-8.836 0-16 7.164-16 16v480c0 8.837 7.164 16 16 16h480c8.836 0 16-7.163 16-16v-480c0-8.836-7.164-16-16-16zm-16 480h-448v-448h448zm-381.75-140.25h43.25v27.875c0 8.837 7.164 16 16 16h29.75v30.125c0 8.837 7.164 16 16 16h105.5c8.836 0 16-7.163 16-16v-30.125h29.75c8.836 0 16-7.163 16-16v-27.875h43.25c8.836 0 16-7.163 16-16v-225.5c0-8.836-7.164-16-16-16h-315.5c-8.836 0-16 7.164-16 16v225.5c0 8.837 7.164 16 16 16zm16-225.5h26.75v43.748c0 8.836 7.164 16 16 16s16-7.164 16-16v-43.748h34v43.748c0 8.836 7.164 16 16 16s16-7.164 16-16v-43.748h34v43.748c0 8.836 7.164 16 16 16s16-7.164 16-16v-43.748h34v43.748c0 8.836 7.164 16 16 16s16-7.164 16-16v-43.748h26.75v193.5h-43.25c-8.836 0-16 7.163-16 16v27.875h-29.75c-8.836 0-16 7.163-16 16v30.125h-73.5v-30.125c0-8.837-7.164-16-16-16h-29.75v-27.875c0-8.837-7.164-16-16-16h-43.25z" fill="url(#SVGID_1_)"></path></svg>