<!-- icon666.com - MILLIONS vector ICONS FREE --><svg id="Layer_1" enable-background="new 0 0 512 512" viewBox="0 0 512 512" xmlns="http://www.w3.org/2000/svg" xmlns:xlink="http://www.w3.org/1999/xlink"><linearGradient id="SVGID_1_" gradientUnits="userSpaceOnUse" x1="22.987" x2="489.013" y1="489.014" y2="22.987"><stop offset="0" stop-color="#fcc60e"></stop><stop offset="1" stop-color="#e92e29"></stop></linearGradient><path d="m318.766 204.193-36.923 27.764-148.077-46.387 37.714-24.765zm-200.766 137.189 154.132 48.284v-135.601l-154.132-48.284zm261.269-182.685-144.142-39.686-37.345 24.523 144.891 42.682zm132.731-80.304v355.215c0 43.225-35.167 78.392-78.393 78.392h-355.214c-43.226 0-78.393-35.167-78.393-78.393v-355.214c0-43.226 35.167-78.393 78.393-78.393h355.215c43.225 0 78.392 35.167 78.392 78.393zm-94 75.217c0-5.401-3.608-10.136-8.814-11.569l-172.921-47.61c-3.328-.917-6.888-.356-9.772 1.539l-127.08 83.447c-3.378 2.218-5.413 5.988-5.413 10.03v160.75c0 5.245 3.407 9.883 8.413 11.451l178.132 55.803c1.176.368 2.385.549 3.586.549 2.57 0 5.108-.826 7.213-2.409l121.868-91.64c3.015-2.267 4.788-5.819 4.788-9.591zm-121.868 228.353 97.868-73.593v-130.722l-97.868 73.592z" fill="url(#SVGID_1_)"></path></svg>