<!-- icon666.com - MILLIONS vector ICONS FREE --><svg viewBox="0 0 400 400" xmlns="http://www.w3.org/2000/svg" xmlns:xlink="http://www.w3.org/1999/xlink"><linearGradient id="linear-gradient" gradientUnits="userSpaceOnUse" x1="27.82" x2="372.18" y1="27.82" y2="372.18"><stop offset="0" stop-color="#29c2ff"></stop><stop offset="1" stop-color="#0690ba"></stop></linearGradient><g id="Layer_2" data-name="Layer 2"><g id="Layer_1-2" data-name="Layer 1"><g id="_8" data-name="8"><rect fill="url(#linear-gradient)" height="400" rx="95" width="400"></rect><path id="_8-2" d="m202.62 100.88c46.26 0 67.76 17 67.76 53.74 0 22.76-8 36.5-27 46.5 22.24 9.26 32.24 22.26 32.24 45 0 36-24 53-73.24 53h-4.76c-49.74 0-73.24-17.24-73.24-53.5 0-22.74 10.5-37 33.24-48-19.74-9.74-27.24-22.5-27.24-43.24 0-36.26 21.74-53.5 68-53.5zm-12.5 114.5c-14.74 5.74-19.5 12.24-19.5 22 0 14 10 21.5 28 21.5h2.76c18.74 0 28-5.76 28-17.26 0-9.5-6-16-18.26-19.74zm9.26-74.26q-22.5 0-22.5 17.26c0 9.74 6 16.5 18 20.5l15.24 4.5c9.26-4.76 14-12.5 14-22.76 0-13-7.5-19.5-22.24-19.5z" fill="#fff" data-name="8"></path></g></g></g></svg>