<!-- icon666.com - MILLIONS vector ICONS FREE --><svg viewBox="0 0 400 400" xmlns="http://www.w3.org/2000/svg" xmlns:xlink="http://www.w3.org/1999/xlink"><linearGradient id="linear-gradient" gradientUnits="userSpaceOnUse" x1="27.82" x2="372.18" y1="27.82" y2="372.18"><stop offset="0" stop-color="#29c2ff"></stop><stop offset="1" stop-color="#0690ba"></stop></linearGradient><g id="Layer_2" data-name="Layer 2"><g id="Layer_1-2" data-name="Layer 1"><g id="_5" data-name="5"><rect fill="url(#linear-gradient)" height="400" rx="95" width="400"></rect><path id="_5-2" d="m260.75 101.5c2.75 0 4 1.25 4 3.75v32.75c0 2.5-1.25 3.75-4 3.75h-84.5l-3 34a176.87 176.87 0 0 1 26.5-1.75c21 0 35.5 2.5 48.75 9.5s20.25 20.5 20.25 40.25v25.25c0 20-7.25 33.25-21.5 40.25-14 7-29.75 9.25-53.75 9.25-23.25 0-42-1.5-55.75-4.25-4.75-1.25-6.5-3-6.5-7.25v-25.25c0-2.25 1.25-3.5 3.75-3.5h53.5c13.75 0 23-1.5 27.25-4.5q6.75-4.5 6.75-16.5v-1.75c0-8.25-2.25-13.75-6.5-16.5-4.25-3-13.5-4.5-27.5-4.5h-49.5c-5.25 0-7.75-2-7.75-6.25v-27.75l6.5-75.25a3.74 3.74 0 0 1 4-3.75z" fill="#fff" data-name="5"></path></g></g></g></svg>