<!-- icon666.com - MILLIONS vector ICONS FREE --><svg viewBox="0 0 400 400" xmlns="http://www.w3.org/2000/svg" xmlns:xlink="http://www.w3.org/1999/xlink"><linearGradient id="linear-gradient" gradientUnits="userSpaceOnUse" x1="27.82" x2="372.18" y1="27.82" y2="372.18"><stop offset="0" stop-color="#29c2ff"></stop><stop offset="1" stop-color="#0690ba"></stop></linearGradient><g id="Layer_2" data-name="Layer 2"><g id="Layer_1-2" data-name="Layer 1"><g id="_4" data-name="4"><rect fill="url(#linear-gradient)" height="400" rx="95" width="400"></rect><path id="_4-2" d="m193.62 102.12c2.76 0 3.5 1.5 2.76 4.5l-28.76 104h38v-39.5a4.76 4.76 0 0 1 3.76-4.74l38.5-12.5c2.74-.76 4 .24 4 3.5v53.24h26.24c2.76 0 4 1.26 4 3.76v33c0 2.5-1.24 3.74-4 3.74h-26.24v42.76c0 2.74-1.26 4-3.76 4h-38.74c-2.5 0-3.76-1.26-3.76-4v-42.76h-84c-2.5 0-3.74-1.24-3.74-4v-23.74a34.75 34.75 0 0 1 1.74-8.76l31-110c.5-1.74 2-2.5 4.5-2.5z" fill="#fff" data-name="4"></path></g></g></g></svg>