<!-- icon666.com - MILLIONS vector ICONS FREE --><svg viewBox="0 0 48 48" xmlns="http://www.w3.org/2000/svg" xmlns:xlink="http://www.w3.org/1999/xlink"><linearGradient id="linear-gradient" gradientUnits="userSpaceOnUse" x1="24" x2="24" y1="1.218" y2="46.782"><stop offset="0" stop-color="#e8f5ff"></stop><stop offset="1" stop-color="#b4dfff"></stop></linearGradient><linearGradient id="linear-gradient-2" gradientUnits="userSpaceOnUse" x1="24" x2="24" y1="10.957" y2="36.492"><stop offset="0" stop-color="#466aff"></stop><stop offset="1" stop-color="#06b8ff"></stop></linearGradient><g id="Layer_2" data-name="Layer 2"><path d="m46.4062 10.7174a9.6831 9.6831 0 0 0 -9.124-9.1241 235.4011 235.4011 0 0 0 -26.5639 0 9.684 9.684 0 0 0 -9.1245 9.1241 235.41 235.41 0 0 0 0 26.5644 9.6839 9.6839 0 0 0 9.1245 9.124 234.8618 234.8618 0 0 0 26.5639 0 9.683 9.683 0 0 0 9.124-9.124 235.41 235.41 0 0 0 0-26.5644z" fill="url(#linear-gradient)"></path></g><g id="Layer_3" data-name="Layer 3"><path d="m15 31.75h3.5176a2.256 2.256 0 0 1 1.9487 1.126l1.626 2.8164a2.2689 2.2689 0 0 0 3.8291-.0225l1.6128-2.7944a2.2552 2.2552 0 0 1 1.9482-1.1255h3.5176a3.7541 3.7541 0 0 0 3.75-3.75v-13a3.7541 3.7541 0 0 0 -3.75-3.75h-18a3.7541 3.7541 0 0 0 -3.75 3.75v13a3.7541 3.7541 0 0 0 3.75 3.75zm9-15.5a.75.75 0 1 1 -.75.75.75.75 0 0 1 .75-.75zm-.75 3.75a.75.75 0 0 1 1.5 0v6a.75.75 0 0 1 -1.5 0z" fill="url(#linear-gradient-2)"></path></g></svg>