<!-- icon666.com - MILLIONS vector ICONS FREE --><svg id="Layer_1" enable-background="new 0 0 512 512" viewBox="0 0 512 512" xmlns="http://www.w3.org/2000/svg" xmlns:xlink="http://www.w3.org/1999/xlink"><linearGradient id="SVGID_1_" gradientUnits="userSpaceOnUse" x1="105.375" x2="453.715" y1="437.303" y2="88.963"><stop offset="0" stop-color="#fcc60e"></stop><stop offset="1" stop-color="#e92e29"></stop></linearGradient><path d="m304.592 192.479c8.542-14.881 14.192-30.001 14.192-44.654 0-43.82-35.65-79.472-79.472-79.472s-79.472 35.651-79.472 79.472c0 14.654 5.65 29.774 14.193 44.656-27.011 11.828-50.192 30.666-67.424 54.959-19.555 27.565-29.891 60.06-29.891 93.968.001 89.653 72.941 162.592 162.596 162.592 89.654 0 162.594-72.939 162.594-162.594 0-33.909-10.336-66.403-29.891-93.969-17.232-24.291-40.413-43.129-67.425-54.958zm-163.669 156.928c1.139 26.714 7.746 52.284 19.101 75.419-10.92 3.684-21.208 8.189-30.57 13.526-21.195-23.99-34.676-54.943-36.514-88.945zm138.521-121.425c2.597 2.983 5.099 6.045 7.485 9.195-4.55-.967-9.054-1.717-13.206-2.293 1.917-2.277 3.827-4.579 5.721-6.902zm-95.64 206.509c15.207-3.6 31.293-5.657 47.509-6.166v55.301c-19.279-13.321-35.311-30.047-47.509-49.135zm63.509 49.135v-55.3c16.215.508 32.302 2.565 47.508 6.165-12.198 19.087-28.23 35.813-47.508 49.135zm0-70.998v-63.222h74.373c-1.172 25.158-7.638 49.197-18.689 70.821-17.71-4.508-36.621-7.046-55.684-7.599zm0-79.221v-41.331c20.881-.655 47.524-3.928 63.314-12.247 6.571 17.167 10.287 35.122 11.094 53.578zm10.109-79.685c1.208-1.377 2.434-2.775 3.665-4.181 30.609 2.632 44.3 9.8 46.784 12.859-1.358 1.601-6.596 5.304-19.603 8.572-13.426 3.374-30.812 5.232-48.956 5.232s-35.53-1.858-48.956-5.232c-13.007-3.269-18.244-6.972-19.603-8.572 2.483-3.06 16.174-10.227 46.784-12.859 1.232 1.408 2.458 2.806 3.668 4.185 4.307 4.907 8.373 9.542 11.998 13.828 1.521 1.797 3.755 2.834 6.108 2.834 2.354 0 4.589-1.037 6.108-2.834 3.627-4.287 7.696-8.924 12.003-13.832zm-52.519-18.839c-4.152.577-8.656 1.326-13.207 2.293 2.386-3.149 4.888-6.212 7.485-9.195 1.895 2.324 3.805 4.626 5.722 6.902zm-36.904 44.946c15.79 8.319 42.432 11.592 63.314 12.247v41.331h-74.408c.807-18.456 4.523-36.411 11.094-53.578zm63.314 69.578v63.222c-19.063.553-37.974 3.091-55.685 7.6-11.05-21.624-17.517-45.663-18.689-70.821h74.374zm-63.582 89.581c10.146 16.824 22.969 32.064 38.132 45.158-24.498-5.74-46.649-17.64-64.725-33.972 8.233-4.385 17.166-8.114 26.593-11.186zm143.164 0c9.427 3.073 18.36 6.802 26.594 11.187-18.077 16.333-40.229 28.233-64.728 33.972 15.164-13.095 27.988-28.335 38.134-45.159zm7.707-14.163c11.355-23.135 17.962-48.705 19.101-75.419h47.984c-1.838 34.002-15.319 64.956-36.514 88.946-9.362-5.337-19.65-9.843-30.571-13.527zm19.13-91.418c-.907-22.668-5.824-44.654-14.671-65.513.686-1.714 1.057-3.537 1.057-5.481 0-2.11-.435-4.07-1.232-5.89 9.471-3.447 18.245-7.488 26.262-12.063 21.417 24.339 34.671 55.568 36.512 88.948h-47.928zm-.237-100.778c-8.11 4.3-17.08 8.021-26.783 11.138-6.16-10.163-13.274-19.747-21.237-28.599 2.225-2.979 4.39-5.981 6.465-9.004 15.478 6.49 29.471 15.507 41.555 26.465zm-98.182-148.276c34.998 0 63.472 28.474 63.472 63.472 0 29.941-33.17 67.743-57.389 95.345-2.089 2.38-4.122 4.697-6.083 6.95-1.96-2.251-3.992-4.567-6.08-6.946-24.221-27.603-57.392-65.406-57.392-95.349 0-34.998 28.474-63.472 63.472-63.472zm-50.162 130.814c-7.964 8.852-15.079 18.436-21.237 28.6-9.701-3.115-18.669-6.837-26.782-11.137 12.084-10.958 26.076-19.975 41.555-26.465 2.075 3.023 4.24 6.024 6.464 9.002zm-59.672 29.292c8.019 4.576 16.792 8.617 26.261 12.063-.797 1.821-1.232 3.78-1.232 5.89 0 1.943.371 3.766 1.056 5.48-8.846 20.86-13.763 42.847-14.67 65.514h-47.928c1.841-33.378 15.096-64.607 36.513-88.947zm160.716-96.634c0-28.057-22.825-50.882-50.882-50.882-28.056 0-50.881 22.825-50.881 50.882s22.825 50.882 50.881 50.882c28.057 0 50.882-22.826 50.882-50.882zm-85.763 0c0-19.234 15.647-34.882 34.881-34.882s34.882 15.647 34.882 34.882-15.647 34.882-34.882 34.882c-19.233 0-34.881-15.648-34.881-34.882zm108.821-72.306c2.034-3.921 6.861-5.45 10.785-3.418 15.773 8.182 26.892 21.76 31.306 38.233s1.574 33.791-7.995 48.764c-1.527 2.388-4.11 3.692-6.749 3.692-1.475 0-2.966-.407-4.301-1.261-3.723-2.379-4.812-7.326-2.432-11.049 7.12-11.14 9.259-23.927 6.021-36.006-3.236-12.079-11.482-22.084-23.218-28.171-3.92-2.033-5.451-6.862-3.417-10.784zm20.198-31.602c2.035-3.92 6.862-5.45 10.785-3.418 24.665 12.794 42.042 33.996 48.93 59.701 6.888 25.704 2.439 52.754-12.523 76.167-1.526 2.388-4.11 3.692-6.749 3.692-1.475 0-2.966-.407-4.301-1.26-3.723-2.38-4.812-7.326-2.433-11.05 12.515-19.579 16.262-42.099 10.551-63.409-5.71-21.311-20.215-38.939-40.842-49.639-3.922-2.033-5.452-6.862-3.418-10.784zm80.481 149.718c-1.526 2.389-4.11 3.693-6.749 3.693-1.475 0-2.966-.407-4.3-1.26-3.724-2.38-4.812-7.326-2.434-11.049 17.909-28.022 23.266-60.273 15.082-90.813-8.183-30.538-28.946-55.791-58.467-71.104-3.922-2.035-5.452-6.863-3.418-10.785s6.865-5.451 10.785-3.418c33.559 17.409 57.194 46.234 66.555 81.167s3.305 71.715-17.054 103.569z" fill="url(#SVGID_1_)"></path></svg>