<!-- icon666.com - MILLIONS vector ICONS FREE --><svg version="1.1" id="Capa_1" xmlns="http://www.w3.org/2000/svg" xmlns:xlink="http://www.w3.org/1999/xlink" x="0px" y="0px" viewBox="0 0 512 512" style="enable-background:new 0 0 512 512;" xml:space="preserve"><linearGradient id="SVGID_1_" gradientUnits="userSpaceOnUse" x1="437.0193" y1="76.9807" x2="74.9807" y2="439.0193" gradientTransform="matrix(1 0 0 -1 0 514)"><stop offset="0" style="stop-color:#009983"></stop><stop offset="1" style="stop-color:#19FFEC"></stop></linearGradient><circle style="fill:url(#SVGID_1_);" cx="256" cy="256" r="256"></circle><linearGradient id="SVGID_2_" gradientUnits="userSpaceOnUse" x1="166.0825" y1="321.4125" x2="290.0825" y2="197.4125" gradientTransform="matrix(1 0 0 -1 0 514)"><stop offset="0" style="stop-color:#FFFFFF"></stop><stop offset="1" style="stop-color:#FFED97"></stop></linearGradient><path style="fill:url(#SVGID_2_);" d="M374.291,175.44l-66.353-66.353L206.196,126.29L40.312,292.173l150.893,150.893 l165.884-165.884L374.291,175.44z M284.428,198.949c-10.414-10.414-10.414-27.298,0-37.712s27.299-10.414,37.713,0 s10.414,27.299,0,37.713C311.726,209.363,294.842,209.363,284.428,198.949z"></path><path style="fill:#FF3200;" d="M312.3,387.452l-8.485-8.485l128.321-128.321c26.193-26.193,27.251-68.849,1.461-95.439 c-26.25-27.064-69.632-27.314-96.198-0.748l-27.753,27.753c-2.343,2.343-6.142,2.343-8.485,0l0,0c-2.343-2.343-2.343-6.142,0-8.485 l27.037-27.037c30.95-30.95,81.344-31.916,112.592-1.268c31.553,30.948,31.739,81.801,0.556,112.984L312.3,387.452z"></path></svg>