<!-- icon666.com - MILLIONS vector ICONS FREE --><svg viewBox="0 0 32 32" xmlns="http://www.w3.org/2000/svg" xmlns:xlink="http://www.w3.org/1999/xlink"><linearGradient id="linear-gradient" gradientUnits="userSpaceOnUse" x1="3" x2="25" y1="16" y2="16"><stop offset="0" stop-color="#b1e4f9"></stop><stop offset="1" stop-color="#9cf"></stop></linearGradient><linearGradient id="linear-gradient-2" gradientUnits="userSpaceOnUse" x1="3" x2="11.52" y1="16" y2="16"><stop offset="0" stop-color="#26a6fe"></stop><stop offset="1" stop-color="#4fc3f7"></stop></linearGradient><linearGradient id="linear-gradient-3" x1="7" x2="29" xlink:href="#linear-gradient-2" y1="25.5" y2="25.5"></linearGradient><linearGradient id="linear-gradient-4" gradientUnits="userSpaceOnUse" x1="8" x2="22" y1="9" y2="9"><stop offset="0" stop-color="#465a61"></stop><stop offset="1" stop-color="#546e7a"></stop></linearGradient><linearGradient id="linear-gradient-5" xlink:href="#linear-gradient-4" y1="13" y2="13"></linearGradient><linearGradient id="linear-gradient-6" xlink:href="#linear-gradient-4" y1="17" y2="17"></linearGradient><g id="_08_list" data-name="08 list"><path d="m24.52 2.15a1 1 0 0 0 -1 0l-3.34 1.7-2.65-1.69a1 1 0 0 0 -1.1 0l-2.43 1.64-2.45-1.63a1 1 0 0 0 -1.1 0l-2.52 1.68-3.48-1.74a1 1 0 0 0 -1.45.89v22.13a4.87 4.87 0 0 0 4.87 4.87h.13a1 1 0 0 0 .42-.1 4.48 4.48 0 0 0 2.81-6.9h12.77a1 1 0 0 0 1-1v-19a1 1 0 0 0 -.48-.85z" fill="url(#linear-gradient)"></path><path d="m10.42 27.9a4.37 4.37 0 0 0 1.1-.39 4.23 4.23 0 0 1 -.85 1.17 4.4 4.4 0 0 1 -2.25 1.22 1 1 0 0 1 -.42.1h-.13a4.87 4.87 0 0 1 -4.87-4.87v-22.13a1 1 0 0 1 1.45-.89l.55.28v20.74a4.87 4.87 0 0 0 4.87 4.87h.13a1 1 0 0 0 .42-.1z" fill="url(#linear-gradient-2)"></path><path d="m24.5 21h-16.5a1 1 0 0 0 -1 1 1 1 0 0 0 .86 1 2.51 2.51 0 0 1 2.14 2.5 2.47 2.47 0 0 1 -.74 1.77 2.53 2.53 0 0 1 -1.4.7 1 1 0 0 0 -.86 1.03 1 1 0 0 0 1 1h16.5a4.52 4.52 0 0 0 4.5-4.5 4.51 4.51 0 0 0 -4.5-4.5z" fill="url(#linear-gradient-3)"></path><path d="m21 10h-12a1 1 0 0 1 0-2h12a1 1 0 0 1 0 2z" fill="url(#linear-gradient-4)"></path><path d="m21 14h-12a1 1 0 0 1 0-2h12a1 1 0 0 1 0 2z" fill="url(#linear-gradient-5)"></path><path d="m21 18h-12a1 1 0 0 1 0-2h12a1 1 0 0 1 0 2z" fill="url(#linear-gradient-6)"></path></g></svg>