<!-- icon666.com - MILLIONS vector ICONS FREE --><svg viewBox="0 0 400 400" xmlns="http://www.w3.org/2000/svg" xmlns:xlink="http://www.w3.org/1999/xlink"><linearGradient id="linear-gradient" gradientUnits="userSpaceOnUse" x1="27.82" x2="372.18" y1="27.82" y2="372.18"><stop offset="0" stop-color="#29c2ff"></stop><stop offset="1" stop-color="#0690ba"></stop></linearGradient><g id="Layer_2" data-name="Layer 2"><g id="Layer_1-2" data-name="Layer 1"><g id="_9" data-name="9"><rect fill="url(#linear-gradient)" height="400" rx="95" width="400"></rect><path id="_9-2" d="m251.75 111.38c14 7 21.5 20.74 21.5 40v25a56 56 0 0 1 -4.5 22.74l-49 96.76a4.78 4.78 0 0 1 -4.5 2.5h-40.5c-3.25 0-4-1.5-2.5-4.5l35.75-71.76a88.62 88.62 0 0 1 -17.25 1.5c-40.75 0-64-15.24-64-47.24v-25.26c0-19.24 7-32.74 20.75-39.74 13.75-7.26 29.25-9.76 51.5-9.76 22.75 0 38.75 2.76 52.75 9.76zm-74.25 35c-3 3-4.5 8.5-4.5 16.74v1.26c0 8.24 1.5 13.74 4.75 16.74s10.25 4.5 21.25 4.5c11.75 0 19.25-1.5 22.75-4.5s5.25-8.5 5.25-16.74v-1.26c0-8.24-1.75-13.74-5.25-16.74s-11-4.5-22.75-4.5c-11.25 0-18.25 1.5-21.5 4.5z" fill="#fff" data-name="9"></path></g></g></g></svg>