<!-- icon666.com - MILLIONS vector ICONS FREE --><svg viewBox="0 0 400 400" xmlns="http://www.w3.org/2000/svg" xmlns:xlink="http://www.w3.org/1999/xlink"><linearGradient id="linear-gradient" gradientUnits="userSpaceOnUse" x1="27.82" x2="372.18" y1="27.82" y2="372.18"><stop offset="0" stop-color="#29c2ff"></stop><stop offset="1" stop-color="#0690ba"></stop></linearGradient><g id="Layer_2" data-name="Layer 2"><g id="Layer_1-2" data-name="Layer 1"><g id="_1" data-name="1"><rect fill="url(#linear-gradient)" height="400" rx="95" width="400"></rect><path id="_1-2" d="m223.12 258.38h30.76c2.74 0 4 1.24 4 3.74v32.76c0 2.5-1.26 3.74-4 3.74h-106c-2.5 0-3.76-1.24-3.76-3.74l-.24-32.76c0-2.5 1.24-3.74 4-3.74h31.5v-106.76c0-10.24-3.76-12.5-15.5-12.5h-17.5c-2.76 0-4.26-1.24-4.26-3.74v-25.76c0-3 1.5-4.74 4.26-5.24a134.34 134.34 0 0 1 28.5-3c15 0 24.74 1.5 34 6.74 9.74 5 14.24 15.5 14.24 31.5z" fill="#fff" data-name="1"></path></g></g></g></svg>