<!-- icon666.com - MILLIONS vector ICONS FREE --><svg id="svg8" viewBox="0 0 33.866666 33.866668" xmlns="http://www.w3.org/2000/svg" xmlns:xlink="http://www.w3.org/1999/xlink" xmlns:svg="http://www.w3.org/2000/svg"><linearGradient id="linearGradient3363" gradientUnits="userSpaceOnUse" x1="-180.440378" x2="-180.440378" y1="97.375304" y2="99.607314"><stop id="stop2198" offset="0" stop-color="#f6f600"></stop><stop id="stop2200" offset="1" stop-color="#f69134"></stop></linearGradient><linearGradient id="linearGradient3728"><stop id="stop3724" offset="0" stop-color="#f5f8ff"></stop><stop id="stop3726" offset="1" stop-color="#a0c9ff"></stop></linearGradient><linearGradient id="linearGradient9584" gradientTransform="matrix(.707 .707 -.707 .707 -29.591 -8.539)" gradientUnits="userSpaceOnUse" x1="18.263" x2="22.255" xlink:href="#linearGradient3728" y1="12.529" y2="12.529"></linearGradient><linearGradient id="0"><stop id="stop1615" offset="0" stop-color="#ff7e3f"></stop><stop id="stop1617" offset="1" stop-color="#ffbe3f"></stop></linearGradient><linearGradient id="linearGradient4491-0-8" gradientTransform="matrix(-1 0 0 1 33.867 -1.325)" gradientUnits="userSpaceOnUse" x1="11.443" x2="10.517" xlink:href="#0" y1="37.075" y2="18.259"></linearGradient><linearGradient id="linearGradient7673" gradientTransform="matrix(-1 0 0 1 26.136 -1.325)" gradientUnits="userSpaceOnUse" x1="12.278" x2="17.807" xlink:href="#0" y1="32.811" y2="12.177"></linearGradient><linearGradient id="linearGradient7687" gradientUnits="userSpaceOnUse" x1="6.216" x2="6.216" xlink:href="#0" y1="19.549" y2="10.7"></linearGradient><linearGradient id="linearGradient7691" gradientTransform="matrix(1 0 0 -1 -6.966 25.801)" gradientUnits="userSpaceOnUse" x1="21.364" x2="11.458" xlink:href="#0" y1="15.101" y2="23.98"></linearGradient><linearGradient id="linearGradient7699" gradientTransform="matrix(-1 0 0 -1 33.868 25.801)" gradientUnits="userSpaceOnUse" x1="11.402" x2="18.43" xlink:href="#0" y1="10.918" y2="20.666"></linearGradient><linearGradient id="linearGradient7712" gradientUnits="userSpaceOnUse" x1="26.061" x2="26.061" xlink:href="#linearGradient3728" y1="21.663" y2="27.351"></linearGradient><g id="layer1"><g stroke-dasharray=".265 1.058" stroke-linecap="square" stroke-width=".265"><path id="path7689" d="m17.003493 10.699957-1.058333-4.3522069c-.346348-1.4242937-1.609988-2.6458404-3.075788-2.6458404h-9.751852c-1.46579 0-2.33269089 1.2226894-1.9816776 2.6458404l1.0734509 4.3522069z" fill="url(#linearGradient7691)" paint-order="markers fill stroke"></path><path id="path7671" d="m2.6419359 10.699956v18.137084c0 1.4658 1.18004 2.64584 2.64584 2.64584h17.1439301c1.46579 0 2.64583-1.18004 2.64583-2.64584v-18.137084z" fill="url(#linearGradient7673)" paint-order="markers fill stroke"></path><path id="path4462-3-6-4" d="m14.398459 10.699957-.05698 18.137083c-.0046 1.465793 1.18004 2.64584 2.64584 2.64584h11.534948c1.46579 0 3.112282-1.180041 3.113721-2.64584l.05698-18.137083z" fill="url(#linearGradient4491-0-8)" paint-order="markers fill stroke"></path></g><path id="path4468-4-9-3" d="m31.327807 28.57344v.26355h-.52917v-.26355zm-1.3224 0v.26355h-.52917v-.26355zm-1.32189 0v.26355h-.52916v-.26355zm-1.32446 0v.26355h-.52917v-.26355zm-1.3224 0v.26355h-.52917v-.26355zm-1.32189 0v.26355h-.52916v-.26355zm-1.32446 0v.26355h-.52917v-.26355zm-1.32189 0v.26355h-.52968v-.26355zm-1.3224 0v.26355h-.52968v-.26355zm-1.32446 0v.26355h-.52917v-.26355zm-1.3224 0v.26355h-.52917v-.26355zm-1.32189 0v.26355h-.52968v-.26355zm-1.32446 0v.26355h-.52917v-.26355zm-1.3224 0v.26355h-.52917v-.26355z" fill="#e53b38" font-variant-ligatures="normal" font-variant-position="normal" font-variant-caps="normal" font-variant-numeric="normal" font-variant-alternates="normal" font-variant-east-asian="normal" font-feature-settings="normal" font-variation-settings="normal" text-indent="0" text-align="start" text-decoration-line="none" text-decoration-style="solid" text-decoration-color="#000000" text-transform="none" text-orientation="mixed" white-space="normal" shape-padding="0" shape-margin="0" inline-size="0" isolation="auto" mix-blend-mode="normal" solid-color="#000000" solid-opacity="1" vector-effect="none" paint-order="markers fill stroke"></path><path id="path7685" d="m14.398459 10.699957-1.058333 6.396198c-.239282 1.446137-1.609988 2.64584-3.075788 2.64584h-6.9547115c-1.46579 0-2.46155297-1.201235-2.2131875-2.64584l1.0996741-6.396198z" fill="url(#linearGradient7687)" stroke-dasharray=".265 1.058" stroke-linecap="square" stroke-width=".265" paint-order="markers fill stroke"></path><path id="path7697" d="m14.342917 10.699957 1.058333-5.6517375c.269793-1.440757 1.609988-2.6458404 3.075788-2.6458404h12.392635c1.46579 0 2.151421 1.2050834 1.881628 2.6458404l-1.058333 5.6517375z" fill="url(#linearGradient7699)" stroke-dasharray=".265 1.058" stroke-linecap="square" stroke-width=".265" paint-order="markers fill stroke"></path><path id="path7701" d="m12.964066 28.57344v.26355h-.52917v-.26355zm-1.32189 0v.26355h-.52968v-.26355zm-1.3224 0v.26355h-.5296796v-.26355zm-1.3244596 0v.26355h-.52917v-.26355zm-1.3224 0v.26355h-.52917v-.26355zm-1.32189 0v.26355h-.52968v-.26355zm-1.32446 0v.26355h-.52917v-.26355zm-1.3224 0v.26355h-.52917v-.26355z" fill="#e53b38" font-variant-ligatures="normal" font-variant-position="normal" font-variant-caps="normal" font-variant-numeric="normal" font-variant-alternates="normal" font-variant-east-asian="normal" font-feature-settings="normal" font-variation-settings="normal" text-indent="0" text-align="start" text-decoration-line="none" text-decoration-style="solid" text-decoration-color="#000000" text-transform="none" text-orientation="mixed" white-space="normal" shape-padding="0" shape-margin="0" inline-size="0" isolation="auto" mix-blend-mode="normal" solid-color="#000000" solid-opacity="1" vector-effect="none" paint-order="markers fill stroke"></path><path id="rect7703" d="m24.473959 22.621874h3.968748c.732896 0 1.322916.590021 1.322916 1.322917v1.653647c0 .732896-.59002 1.322916-1.322916 1.322916h-3.968748c-.732896 0-1.322917-.59002-1.322917-1.322916v-1.653647c0-.732896.590021-1.322917 1.322917-1.322917z" fill="url(#linearGradient7712)" stroke-dasharray=".265 1.06" stroke-linecap="square" stroke-width=".265" paint-order="markers fill stroke"></path><path id="path7838" d="m9.2599613 45.994141v.996093h1.9999997v-.996093zm4.9980467 0v.996093h2v-.996093zm5.003906 0v.996093h2.001953v-.996093zm4.998047 0v.996093h2v-.996093zm4.998047 0v.996093h2v-.996093zm5.003906 0v.996093h2.001953v-.996093zm4.998047 0v.996093h2.001953v-.996093zm4.998047 0v.996093h2v-.996093zm4.408203 0v.996093h2v-.996093zm7.738086 0v.996093h2v-.996093zm5.003906 0v.996093h2.001953v-.996093zm4.998047 0v.996093h2v-.996093zm4.998047 0v.996093h2v-.996093zm5.003906 0v.996093h2.001953v-.996093zm4.998047 0v.996093h2.001953v-.996093zm4.998047 0v.996093h2v-.996093zm5.005859 0v.996093h2v-.996093zm4.996094 0v.996093h2v-.996093zm4.99805 0v.996093h2v-.996093zm5.00586 0v.996093h2v-.996093zm4.99609 0v.996093h2v-.996093zm4.99805 0v.996093h2v-.996093z" fill="#e53b38" transform="scale(.265)" font-variant-ligatures="normal" font-variant-position="normal" font-variant-caps="normal" font-variant-numeric="normal" font-variant-alternates="normal" font-variant-east-asian="normal" font-feature-settings="normal" font-variation-settings="normal" text-indent="0" text-align="start" text-decoration-line="none" text-decoration-style="solid" text-decoration-color="#000000" text-transform="none" text-orientation="mixed" white-space="normal" shape-padding="0" shape-margin="0" inline-size="0" isolation="auto" mix-blend-mode="normal" solid-color="#000000" solid-opacity="1" vector-effect="none" paint-order="markers fill stroke"></path></g></svg>