<!-- icon666.com - MILLIONS vector ICONS FREE --><svg id="Capa_1" enable-background="new 0 0 512 512" viewBox="0 0 512 512" xmlns="http://www.w3.org/2000/svg" xmlns:xlink="http://www.w3.org/1999/xlink"><linearGradient id="SVGID_1_" gradientTransform="matrix(.707 .707 -.707 .707 213.574 -123.612)" gradientUnits="userSpaceOnUse" x1="298.426" x2="298.426" y1="461.854" y2="-48.138"><stop offset="0" stop-color="#5558ff"></stop><stop offset="1" stop-color="#00c0ff"></stop></linearGradient><linearGradient id="SVGID_2_" gradientTransform="matrix(.707 .707 -.707 .707 213.574 -123.612)" gradientUnits="userSpaceOnUse" x1="298.426" x2="298.426" y1="356.854" y2="-117.394"><stop offset="0" stop-color="#addcff"></stop><stop offset=".5028" stop-color="#eaf6ff"></stop><stop offset="1" stop-color="#eaf6ff"></stop></linearGradient><g><g><g><path d="m500.887 213.55-38.314-153.227c-1.347-5.365-5.531-9.55-10.897-10.897l-153.257-38.324c-15.257-3.801-31.623.756-42.716 11.85l-242.543 242.543c-17.546 17.546-17.546 46.093 0 63.64l169.705 169.705c17.546 17.546 46.093 17.546 63.64 0l242.543-242.543c11.094-11.093 15.651-27.459 11.839-42.747z" fill="url(#SVGID_1_)"></path></g></g><g><g><path d="m334.983 186.505c-1.492-4.475-5.013-7.996-9.488-9.488l-95.459-31.82c-5.386-1.782-11.332-.394-15.351 3.625l-74.246 74.246c-4.019 4.019-5.407 9.964-3.625 15.351l31.82 95.459c.746 2.237 2.009 4.247 3.625 5.863s3.625 2.88 5.863 3.625l95.459 31.82c5.386 1.781 11.332.394 15.351-3.625l74.246-74.246c4.019-4.019 5.407-9.964 3.625-15.351zm-39.34 81.227c-2.631 7.851-11.114 12.109-18.976 9.488l-15.506-5.169-20.26 20.26c-5.863 5.863-15.351 5.863-21.213 0-5.863-5.863-5.863-15.351 0-21.213l20.26-20.26-5.169-15.506c-2.621-7.862 1.637-16.345 9.488-18.976 7.882-2.579 16.345 1.678 18.976 9.488l5.728 17.184 17.184 5.728c7.873 2.652 12.109 11.094 9.488 18.976zm211.96-263.335c-5.863-5.863-15.351-5.863-21.213 0l-101.999 101.999-10.607-10.607c-5.863-5.863-15.351-5.863-21.213 0-5.863 5.863-5.863 15.351 0 21.213l42.426 42.427c5.863 5.863 15.351 5.863 21.213 0 5.863-5.863 5.863-15.351 0-21.213l-10.607-10.607 102-101.999c5.863-5.862 5.863-15.35 0-21.213z" fill="url(#SVGID_2_)"></path></g></g></g></svg>