<!-- icon666.com - MILLIONS vector ICONS FREE --><svg id="Layer_1" enable-background="new 0 0 512 512" viewBox="0 0 512 512" xmlns="http://www.w3.org/2000/svg" xmlns:xlink="http://www.w3.org/1999/xlink"><linearGradient id="SVGID_1_" gradientUnits="userSpaceOnUse" x1="256" x2="256" y1="0" y2="512"><stop offset="0" stop-color="#01f1fe"></stop><stop offset="1" stop-color="#4fadfe"></stop></linearGradient><g clip-rule="evenodd" fill-rule="evenodd"><circle cx="256" cy="256" fill="url(#SVGID_1_)" r="256"></circle><path d="m171.66 339.445h-12.089c-15.518 0-28.143-12.625-28.143-28.143v-110.603c0-15.518 12.625-28.143 28.143-28.143h72.845l-9.912 9.911c-7.142 7.142-7.142 18.719 0 25.859 3.571 3.571 8.25 5.357 12.93 5.357 4.679 0 9.36-1.786 12.929-5.356l41.128-41.127c3.43-3.43 5.357-8.08 5.357-12.93s-1.927-9.501-5.357-12.929l-41.128-41.128c-7.141-7.142-18.719-7.142-25.86 0-7.142 7.14-7.142 18.719 0 25.859l9.912 9.912h-72.845c-35.683 0-64.714 29.031-64.714 64.714v110.602c0 35.683 29.031 64.714 64.714 64.714h12.089c10.098 0 18.286-8.186 18.286-18.286 0-10.097-8.186-18.283-18.285-18.283zm180.77-203.458h-12.09c-10.098 0-18.286 8.187-18.286 18.285s8.188 18.286 18.286 18.286h12.089c15.518 0 28.143 12.625 28.143 28.143v110.602c0 15.518-12.625 28.143-28.143 28.143h-72.847l9.912-9.913c7.142-7.141 7.142-18.719 0-25.859-7.141-7.143-18.719-7.141-25.859 0l-41.127 41.128c-7.142 7.141-7.142 18.719 0 25.859l41.127 41.127c3.57 3.57 8.25 5.357 12.929 5.357s9.359-1.786 12.929-5.357c7.142-7.141 7.142-18.719 0-25.859l-9.912-9.912h72.847c35.684 0 64.714-29.031 64.714-64.714v-110.604c.001-35.683-29.03-64.714-64.712-64.712z" fill="#fff"></path></g></svg>