<!-- icon666.com - MILLIONS vector ICONS FREE --><svg viewBox="0 0 64 64" xmlns="http://www.w3.org/2000/svg" xmlns:xlink="http://www.w3.org/1999/xlink"><linearGradient id="linear-gradient" gradientUnits="userSpaceOnUse" x1="4" x2="60" y1="7.5" y2="7.5"><stop offset="0" stop-color="#54a5ff"></stop><stop offset="1" stop-color="#8ad3fe"></stop></linearGradient><linearGradient id="linear-gradient-2" gradientUnits="userSpaceOnUse" x1="4" x2="60" y1="32.5" y2="32.5"><stop offset="0" stop-color="#d3e6f5"></stop><stop offset="1" stop-color="#f0f7fc"></stop></linearGradient><linearGradient id="linear-gradient-3" gradientUnits="userSpaceOnUse" x1="36" x2="56" y1="27" y2="27"><stop offset="0" stop-color="#fe9661"></stop><stop offset="1" stop-color="#ffb369"></stop></linearGradient><linearGradient id="linear-gradient-4" x1="8" x2="30" xlink:href="#linear-gradient" y1="31" y2="31"></linearGradient><linearGradient id="linear-gradient-5" x1="15" x2="23" xlink:href="#linear-gradient-2" y1="28" y2="28"></linearGradient><linearGradient id="linear-gradient-6" x1="13" x2="25" xlink:href="#linear-gradient-2" y1="33" y2="33"></linearGradient><linearGradient id="linear-gradient-7" x1="12" x2="26" xlink:href="#linear-gradient-2" y1="38" y2="38"></linearGradient><g id="Report"><path d="m39 61a1 1 0 0 1 -.65-.24l-6.35-5.44-6.35 5.44a1 1 0 0 1 -1.3-1.52l7-6a1 1 0 0 1 1.3 0l7 6a1 1 0 0 1 -.65 1.76z" fill="#b4cde1"></path><path d="m60 7v4h-56v-4a3 3 0 0 1 3-3h50a3 3 0 0 1 3 3z" fill="url(#linear-gradient)"></path><path d="m60 11v40a3 3 0 0 1 -3 3h-50a3 3 0 0 1 -3-3v-40z" fill="url(#linear-gradient-2)"></path><path d="m56 27a10 10 0 0 1 -20 0h10v-10a10 10 0 0 1 10 10z" fill="url(#linear-gradient-3)"></path><path d="m46 17v10h-10a10 10 0 0 1 10-10z" fill="#eb7f58"></path><path d="m56 42h-20a1 1 0 0 1 0-2h20a1 1 0 0 1 0 2z" fill="#b4cde1"></path><path d="m56 48h-20a1 1 0 0 1 0-2h20a1 1 0 0 1 0 2z" fill="#b4cde1"></path><path d="m30 26v14a2 2 0 0 1 -2 2h-18a2 2 0 0 1 -2-2v-18a2 2 0 0 1 2-2h14z" fill="url(#linear-gradient-4)"></path><path d="m22 29h-6a1 1 0 0 1 0-2h6a1 1 0 0 1 0 2z" fill="url(#linear-gradient-5)"></path><path d="m24 34h-10a1 1 0 0 1 0-2h10a1 1 0 0 1 0 2z" fill="url(#linear-gradient-6)"></path><path d="m25 39h-12a1 1 0 0 1 0-2h12a1 1 0 0 1 0 2z" fill="url(#linear-gradient-7)"></path><path d="m30 26h-4a2 2 0 0 1 -2-2v-4z" fill="#4795ea"></path></g></svg>