<!-- icon666.com - MILLIONS vector ICONS FREE --><svg viewBox="0 0 64 64" xmlns="http://www.w3.org/2000/svg" xmlns:xlink="http://www.w3.org/1999/xlink"><linearGradient id="gradient_ice" gradientUnits="userSpaceOnUse" x1="-1.939" x2="64.979" y1="63.771" y2="3.26"><stop offset="0" stop-color="#fff200"></stop><stop offset="1" stop-color="#cd118c"></stop></linearGradient><linearGradient id="gradient_ice-2" x1="1.503" x2="68.421" xlink:href="#gradient_ice" y1="67.577" y2="7.066"></linearGradient><linearGradient id="gradient_ice-3" x1=".456" x2="67.374" xlink:href="#gradient_ice" y1="66.42" y2="5.909"></linearGradient><g id="scale-Kitchen-2" data-name="scale-Kitchen"><path d="m49 22h-6v-6h10a5.006 5.006 0 0 0 5-5v-1a1 1 0 0 0 -1-1h-50a1 1 0 0 0 -1 1v1a5.006 5.006 0 0 0 5 5h10v6h-6a13.015 13.015 0 0 0 -13 13v14a9.011 9.011 0 0 0 9 9h1v2a2 2 0 0 0 2 2h4a2 2 0 0 0 2-2v-2h24v2a2 2 0 0 0 2 2h4a2 2 0 0 0 2-2v-2h1a9.011 9.011 0 0 0 9-9v-14a13.015 13.015 0 0 0 -13-13zm-8 0h-2v-6h2zm-14 0v-6h10v6zm-19-11h48a3 3 0 0 1 -3 3h-42a3 3 0 0 1 -3-3zm15 5h2v6h-2zm-5 44h-4v-2h4zm32 0h-4v-2h4zm10-11a7.008 7.008 0 0 1 -7 7h-42a7.008 7.008 0 0 1 -7-7v-14a11.013 11.013 0 0 1 11-11h34a11.013 11.013 0 0 1 11 11z" fill="url(#gradient_ice)"></path><path d="m32 28a12 12 0 1 0 12 12 12.013 12.013 0 0 0 -12-12zm0 22a10.013 10.013 0 0 1 -9.949-9h1.949v-2h-1.949a10.015 10.015 0 0 1 8.949-8.949v1.949h2v-1.949a10.015 10.015 0 0 1 8.949 8.949h-1.949v2h1.949a10.013 10.013 0 0 1 -9.949 9z" fill="url(#gradient_ice-2)"></path><path d="m33 38.278v-4.278h-2v4.278a2 2 0 1 0 2 0z" fill="url(#gradient_ice-3)"></path></g></svg>