<!-- icon666.com - MILLIONS vector ICONS FREE --><svg id="Gradient" viewBox="0 0 16 16" xmlns="http://www.w3.org/2000/svg" xmlns:xlink="http://www.w3.org/1999/xlink"><linearGradient id="New_Gradient_Swatch" gradientUnits="userSpaceOnUse" x1="3.215" x2="12.785" y1="3.215" y2="12.785"><stop offset="0" stop-color="#87f1fc"></stop><stop offset=".2557" stop-color="#7fd4fb"></stop><stop offset=".5295" stop-color="#78bcfb"></stop><stop offset=".7844" stop-color="#74aefa"></stop><stop offset="1" stop-color="#73a9fa"></stop></linearGradient><path d="m13 10.5v-5a5 5 0 0 0 -10 0v5a5 5 0 0 0 10 0zm-6.5-6h3a.5.5 0 0 1 0 1h-3a.5.5 0 0 1 0-1zm-1.5 3.5a.4951.4951 0 0 1 .5-.5h5a.5.5 0 0 1 0 1h-5a.4951.4951 0 0 1 -.5-.5zm1 3a.4951.4951 0 0 1 .5-.5h3a.5.5 0 0 1 0 1h-3a.4951.4951 0 0 1 -.5-.5z" fill="url(#New_Gradient_Swatch)"></path></svg>