<!-- icon666.com - MILLIONS vector ICONS FREE --><svg viewBox="0 0 512 512" xmlns="http://www.w3.org/2000/svg" xmlns:xlink="http://www.w3.org/1999/xlink"><linearGradient id="a" gradientUnits="userSpaceOnUse" x1="74.9807" x2="437.0193" y1="74.9807" y2="437.0193"><stop offset="0" stop-color="#a7dcfc"></stop><stop offset="1" stop-color="#4bb4f5"></stop></linearGradient><linearGradient id="b" gradientUnits="userSpaceOnUse" x1="64" x2="448" y1="256" y2="256"><stop offset="0" stop-color="#b6b8b5"></stop><stop offset="1" stop-color="#5c6f74"></stop></linearGradient><linearGradient id="c" gradientUnits="userSpaceOnUse" x1="142" x2="370" y1="256" y2="256"><stop offset="0" stop-color="#5c6f74"></stop><stop offset="1" stop-color="#203f49"></stop></linearGradient><path d="m512 256c0 141.386719-114.613281 256-256 256s-256-114.613281-256-256 114.613281-256 256-256 256 114.613281 256 256zm0 0" fill="url(#a)"></path><path d="m448 294.445312v-76.890624l-36.414062-10.585938c-2.863282-9.0625-6.515626-17.863281-10.914063-26.285156l18.277344-33.261719-54.371094-54.371094-33.261719 18.277344c-8.421875-4.398437-17.222656-8.050781-26.285156-10.914063l-10.585938-36.414062h-76.890624l-10.585938 36.414062c-9.0625 2.863282-17.867188 6.515626-26.289062 10.914063l-33.257813-18.277344-54.371094 54.371094 18.277344 33.261719c-4.398437 8.417968-8.050781 17.222656-10.914063 26.285156l-36.414062 10.585938v76.890624l36.414062 10.585938c2.863282 9.0625 6.515626 17.863281 10.914063 26.285156l-18.277344 33.261719 54.371094 54.371094 33.261719-18.277344c8.417968 4.398437 17.222656 8.050781 26.285156 10.914063l10.585938 36.414062h76.890624l10.585938-36.414062c9.0625-2.863282 17.867188-6.515626 26.289062-10.914063l33.261719 18.277344 54.367188-54.371094-18.277344-33.261719c4.398437-8.421875 8.054687-17.222656 10.914063-26.285156zm0 0" fill="url(#b)"></path><path d="m256 142c-62.859375 0-114 51.140625-114 114s51.140625 114 114 114 114-51.140625 114-114-51.140625-114-114-114zm90.808594 102.75h-29.976563c-4.636719-25.113281-24.472656-44.964844-49.582031-49.597656v-29.960938c41.476562 5.109375 74.449219 38.082032 79.558594 79.558594zm-102.058594 22.5v26.484375c-12.675781-3.785156-22.691406-13.804687-26.480469-26.484375zm-26.480469-22.5c3.789063-12.679688 13.800781-22.699219 26.480469-26.484375v26.484375zm48.980469 22.5h26.480469c-3.789063 12.679688-13.800781 22.699219-26.480469 26.484375zm0-22.5v-26.484375c12.679688 3.785156 22.691406 13.804687 26.480469 26.484375zm-22.5-79.558594v29.960938c-25.109375 4.636718-44.945312 24.484375-49.582031 49.597656h-29.976563c5.109375-41.476562 38.082032-74.449219 79.558594-79.558594zm-79.558594 102.058594h29.976563c4.636719 25.113281 24.472656 44.964844 49.582031 49.597656v29.960938c-41.476562-5.109375-74.449219-38.082032-79.558594-79.558594zm102.058594 79.558594v-29.960938c25.109375-4.636718 44.945312-24.484375 49.582031-49.597656h29.976563c-5.109375 41.476562-38.082032 74.449219-79.558594 79.558594zm0 0" fill="url(#c)"></path></svg>