<!-- icon666.com - MILLIONS vector ICONS FREE --><svg viewBox="0 0 400 400" xmlns="http://www.w3.org/2000/svg" xmlns:xlink="http://www.w3.org/1999/xlink"><linearGradient id="linear-gradient" gradientUnits="userSpaceOnUse" x1="27.82" x2="372.18" y1="27.82" y2="372.18"><stop offset="0" stop-color="#29c2ff"></stop><stop offset="1" stop-color="#0690ba"></stop></linearGradient><g id="Layer_2" data-name="Layer 2"><g id="Layer_1-2" data-name="Layer 1"><g id="_6" data-name="6"><rect fill="url(#linear-gradient)" height="400" rx="95" width="400"></rect><path id="_6-2" d="m225.25 101.62c3.25 0 4 1.5 2.5 4.5l-35.75 71.5a128.92 128.92 0 0 1 17.25-1.24c42.75 0 64 15.74 64 47.24v25c0 19.76-7 33-20.75 40s-29.25 9.76-51.5 9.76c-22.75 0-38.75-2.76-52.75-9.76s-21.5-20.74-21.5-40v-25c0-8.74 1.5-16.24 4.5-22.74l49-96.76a4.78 4.78 0 0 1 4.5-2.5zm-47 117.26q-5.25 4.5-5.25 16.5v1.5c0 8.24 1.75 13.74 5.25 16.74s11 4.5 22.75 4.5c11.25 0 18.25-1.5 21.25-4.5 3.25-3 4.75-8.5 4.75-16.74v-1.26c0-8.24-1.5-13.74-4.75-16.74s-10.25-4.5-21.25-4.5c-11.5 0-19 1.5-22.75 4.5z" fill="#fff" data-name="6"></path></g></g></g></svg>