<!-- icon666.com - MILLIONS vector ICONS FREE --><svg id="Capa_1" enable-background="new 0 0 512 512" viewBox="0 0 512 512" xmlns="http://www.w3.org/2000/svg" xmlns:xlink="http://www.w3.org/1999/xlink"><linearGradient id="SVGID_1_" gradientUnits="userSpaceOnUse" x1="256" x2="256" y1="316" y2="121"><stop offset="0" stop-color="#ffc2cc"></stop><stop offset="1" stop-color="#fff2f4"></stop></linearGradient><linearGradient id="SVGID_2_" gradientUnits="userSpaceOnUse" x1="256" x2="256" y1="391" y2="121"><stop offset="0" stop-color="#fd3a84"></stop><stop offset="1" stop-color="#ffa68d"></stop></linearGradient><g><g><g><path d="m226 121h-45l-30 45h-30l-30-45h-46c-8.291 0-15 6.709-15 15v180h211v-180c0-8.291-6.709-15-15-15zm241 0h-46l-30 45h-30l-30-45h-45c-8.291 0-15 6.709-15 15v180h211v-180c0-8.291-6.709-15-15-15z" fill="url(#SVGID_1_)"></path></g></g><g><g><path d="m338.119 238.759c4.34 2.699 9.855 3.01 14.59.659l60-30c5.083-2.549 8.291-7.734 8.291-13.418v-75h-90v105c0 5.2 2.695 10.02 7.119 12.759zm-240 0c4.34 2.699 9.855 3.01 14.59.659l60-30c5.083-2.549 8.291-7.734 8.291-13.418v-75h-90v105c0 5.2 2.695 10.02 7.119 12.759zm398.881 122.241h-46v-30h46c8.291 0 15-6.709 15-15s-6.709-15-15-15h-482c-8.291 0-15 6.709-15 15s6.709 15 15 15h46v30h-46c-8.291 0-15 6.709-15 15s6.709 15 15 15h482c8.291 0 15-6.709 15-15s-6.709-15-15-15zm-256 0h-150v-30h150zm180 0h-150v-30h150z" fill="url(#SVGID_2_)"></path></g></g></g></svg>