<!-- icon666.com - MILLIONS vector ICONS FREE --><svg id="Capa_1" enable-background="new 0 0 512 512" viewBox="0 0 512 512" xmlns="http://www.w3.org/2000/svg" xmlns:xlink="http://www.w3.org/1999/xlink"><linearGradient id="SVGID_1_" gradientUnits="userSpaceOnUse" x1="256" x2="256" y1="512" y2="30"><stop offset="0" stop-color="#00b59c"></stop><stop offset="1" stop-color="#9cffac"></stop></linearGradient><linearGradient id="SVGID_2_" gradientUnits="userSpaceOnUse" x1="256" x2="256" y1="451" y2="0"><stop offset="0" stop-color="#c3ffe8"></stop><stop offset=".9973" stop-color="#f0fff4"></stop></linearGradient><g id="Question_2_"><g><g><path d="m406 30h-45c-16.569 0-30 13.431-30 30v30h-150v-30c0-16.569-13.431-30-30-30h-45c-8.284 0-15 6.716-15 15v452c0 8.284 6.716 15 15 15h300c8.284 0 15-6.716 15-15v-452c0-8.284-6.716-15-15-15z" fill="url(#SVGID_1_)"></path></g></g><g><g><path d="m298.422 30c-6.182-17.461-22.852-30-42.422-30s-36.24 12.539-42.422 30h-62.578v75c0 8.284 6.716 15 15 15h180c8.284 0 15-6.716 15-15v-75zm-15.762 202.27c11.485-8.467 18.34-22.002 18.34-36.27 0-24.814-20.186-45-45-45s-45 20.186-45 45c0 8.291 6.709 15 15 15s15-6.709 15-15c0-8.262 6.738-15 15-15s15 6.738 15 15c0 4.834-2.227 9.229-6.094 12.07-14.97 11.016-23.906 28.653-23.906 47.93 0 8.291 6.709 14.648 15 14.648s15-7.061 15-15.352c0-9.052 4.365-17.665 11.66-23.026zm33.34 188.73h-120c-8.291 0-15 6.709-15 15s6.709 15 15 15h120c8.291 0 15-6.709 15-15s-6.709-15-15-15zm30-60h-180c-8.291 0-15 6.709-15 15s6.709 15 15 15h180c8.291 0 15-6.709 15-15s-6.709-15-15-15zm-90-60c-8.284 0-15 6.716-15 15s6.716 15 15 15 15-6.716 15-15-6.716-15-15-15z" fill="url(#SVGID_2_)"></path></g></g></g></svg>