<!-- icon666.com - MILLIONS vector ICONS FREE --><svg viewBox="0 0 400 400" xmlns="http://www.w3.org/2000/svg" xmlns:xlink="http://www.w3.org/1999/xlink"><linearGradient id="linear-gradient" gradientUnits="userSpaceOnUse" x1="27.82" x2="372.18" y1="27.82" y2="372.18"><stop offset="0" stop-color="#29c2ff"></stop><stop offset="1" stop-color="#0690ba"></stop></linearGradient><g id="Layer_2" data-name="Layer 2"><g id="Layer_1-2" data-name="Layer 1"><g id="_3" data-name="3"><rect fill="url(#linear-gradient)" height="400" rx="95" width="400"></rect><path id="_3-2" d="m237.88 106.24c19 5.75 30 19 30 43v14.25c0 21-8.76 33.25-26.26 36.5 17.5 3.5 26.26 15.5 26.26 36.25v14.25c0 16-5.26 27.5-13.5 34.75-13.76 10.75-34.5 14.25-61.76 14q-34.11 0-54-4.5c-4.74-1.25-6.5-2.75-6.5-7v-25.25c0-2.25 1.26-3.5 3.76-3.5h51.5c14.24 0 23.5-1.25 27.74-3.5 4.26-2.5 6.5-7.5 6.5-15.25v-2.5c0-15-5.74-19.75-29.74-19.75h-43c-2.5 0-3.76-1.25-3.76-3.75v-28.5c0-2.5 1.26-3.75 3.76-3.75h43c12 0 20-1.25 23.74-4q6-4.12 6-15.75v-3.24c0-7.25-2.24-12.25-6.74-14.5s-13.76-3.5-28-3.5h-51c-2.5 0-3.76-1.25-3.76-3.5v-25c0-4.25 1.76-6 6.5-7.25q19.89-4.5 54-4.5c19-.01 32.26 1.25 45.26 5.49z" fill="#fff" data-name="3"></path></g></g></g></svg>