<!-- icon666.com - MILLIONS vector ICONS FREE --><svg viewBox="0 0 400 400" xmlns="http://www.w3.org/2000/svg" xmlns:xlink="http://www.w3.org/1999/xlink"><linearGradient id="linear-gradient" gradientUnits="userSpaceOnUse" x1="27.82" x2="372.18" y1="27.82" y2="372.18"><stop offset="0" stop-color="#29c2ff"></stop><stop offset="1" stop-color="#0690ba"></stop></linearGradient><g id="Layer_2" data-name="Layer 2"><g id="Layer_1-2" data-name="Layer 1"><g id="_2" data-name="2"><rect fill="url(#linear-gradient)" height="400" rx="95" width="400"></rect><path id="_2-2" d="m236.62 106.38c18.26 5.74 30.5 18 30.5 41.74v25.26c0 10.5-1.5 19-4.5 25.74s-10.5 14-22.24 22.26l-38.5 26c-4 2.24-6 5-6 8.24v2.5h73.24c1.26 0 2 .5 2 1.5v37.5c0 1-.5 1.5-1.74 1.5h-133.76c-4.5 0-6.74-2.24-6.74-7v-22.5c0-9.74 2.24-17.5 6.5-23.24s12.74-13 25.24-22.26l50.26-36.24c8-6 10-11.26 10-22.5v-5c0-14-7-18.26-32-18.26h-49.26c-2.24 0-3.5-1-3.5-3.24v-25c0-4.26 1.76-6 6-7.26 14.76-3.24 32.26-4.74 52.5-4.74 16.76 0 29 1 42 5z" fill="#fff" data-name="2"></path></g></g></g></svg>