<!-- icon666.com - MILLIONS vector ICONS FREE --><svg viewBox="0 0 400 400" xmlns="http://www.w3.org/2000/svg" xmlns:xlink="http://www.w3.org/1999/xlink"><linearGradient id="linear-gradient" gradientUnits="userSpaceOnUse" x1="27.82" x2="372.18" y1="27.82" y2="372.18"><stop offset="0" stop-color="#29c2ff"></stop><stop offset="1" stop-color="#0690ba"></stop></linearGradient><g id="Layer_2" data-name="Layer 2"><g id="Layer_1-2" data-name="Layer 1"><g id="_0" data-name="0"><rect fill="url(#linear-gradient)" height="400" rx="95" width="400"></rect><path id="_0-2" d="m261.25 122c11.75 16 15.25 38.5 15.25 78.5 0 39.75-3.5 62-15.25 78-11.75 15.75-30 20.75-61.25 20.75-31.75 0-49.5-5-61.5-20.75-11.75-16-15-38.25-15-78 0-40 3.5-62.5 15.25-78.5s29.5-21.25 61.25-21.25c31.25 0 49.5 5.25 61.25 21.25zm-85.5 125c4 8 12 12 24.25 12q18 0 24-12c4.25-8.25 6.25-23.75 6.25-46.5 0-23.25-2-38.75-6.25-47-4-8.25-12-12.5-24-12.5s-20 4.25-24.25 12.5c-4 8.25-6 23.75-6 47q0 34.5 6 46.5z" fill="#fff" data-name="0"></path></g></g></g></svg>